<?xml version="1.0" standalone="no"?>
<!DOCTYPE svg PUBLIC "-//W3C//DTD SVG 20010904//EN"
 "http://www.w3.org/TR/2001/REC-SVG-20010904/DTD/svg10.dtd">
<svg version="1.0" xmlns="http://www.w3.org/2000/svg"
 width="512.000000pt" height="512.000000pt" viewBox="0 0 512.000000 512.000000"
 preserveAspectRatio="xMidYMid meet">
<metadata>
Created by potrace 1.14, written by Peter Selinger 2001-2017
</metadata>
<g transform="translate(0.000000,512.000000) scale(0.100000,-0.100000)"
fill="#000000" stroke="none">
<path d="M4740 4900 c-123 -21 -506 -293 -1035 -734 -66 -55 -122 -103 -125
-106 -3 -3 -39 -34 -80 -70 -85 -74 -131 -114 -170 -150 -15 -14 -62 -56 -105
-95 -112 -101 -115 -105 -300 -280 -349 -331 -670 -661 -802 -825 -37 -47 -90
-105 -116 -129 -57 -53 -99 -112 -116 -161 -6 -19 -24 -51 -40 -70 -79 -97
-484 -607 -490 -618 -4 -8 -57 -21 -127 -33 -65 -11 -135 -22 -154 -25 -87
-15 -192 -47 -265 -83 -209 -102 -326 -258 -416 -551 -50 -162 -68 -200 -120
-251 -45 -44 -145 -114 -185 -129 -30 -12 -27 -18 40 -79 188 -173 356 -234
669 -245 266 -9 530 95 664 262 21 26 41 49 44 52 14 13 69 101 97 155 29 58
69 166 78 211 9 47 66 229 80 255 8 16 24 34 37 40 12 7 54 39 92 72 39 33 81
69 95 80 14 11 43 36 65 56 23 20 61 52 85 73 25 20 104 86 175 147 72 61 136
111 143 111 27 0 129 75 167 123 22 28 95 107 162 176 66 69 141 147 165 172
156 164 332 349 360 380 151 162 229 247 245 265 10 12 54 61 99 110 124 137
270 301 379 429 23 28 74 86 111 130 38 45 98 117 134 160 35 44 67 82 70 85
3 3 53 66 110 140 351 452 470 653 470 793 0 112 -77 176 -190 157z"/>
</g>
</svg>
